<?xml version="1.0" standalone="no"?>
<!DOCTYPE svg PUBLIC "-//W3C//DTD SVG 20010904//EN"
 "http://www.w3.org/TR/2001/REC-SVG-20010904/DTD/svg10.dtd">
<svg version="1.0" xmlns="http://www.w3.org/2000/svg"
 width="544.000000pt" height="544.000000pt" viewBox="0 0 544.000000 544.000000"
 preserveAspectRatio="xMidYMid meet">
<metadata>
Created by potrace 1.14, written by Peter Selinger 2001-2017
</metadata>
<g transform="translate(0.000000,544.000000) scale(0.100000,-0.100000)"
fill="#000000" stroke="none">
<path d="M1870 4991 c-111 -24 -215 -68 -320 -135 l-85 -55 -5 82 -5 82 -125
3 c-69 1 -144 -1 -165 -6 -37 -7 -40 -11 -46 -49 -3 -23 -11 -48 -18 -57 -24
-29 -254 -211 -381 -302 -279 -199 -356 -280 -459 -483 -113 -224 -125 -286
-126 -665 l0 -298 33 -27 c32 -27 32 -28 32 -120 0 -100 10 -131 40 -131 12 0
22 -9 25 -22 10 -47 105 -1259 105 -1351 0 -31 -5 -66 -12 -76 -9 -15 -9 -59
0 -193 7 -95 12 -201 12 -234 0 -66 8 -80 50 -86 23 -3 26 -9 31 -61 4 -34 14
-66 23 -75 20 -20 -166 -20 2531 -8 1726 7 1974 10 2003 24 59 27 83 103 97
312 4 52 13 123 21 157 15 67 7 140 -23 216 -18 45 -16 100 16 497 11 135 27
367 36 515 20 353 21 364 50 375 37 14 45 41 45 155 0 101 1 106 23 114 51 20
52 26 54 305 1 144 6 312 12 375 6 63 8 117 6 121 -2 4 3 44 11 89 19 99 15
116 -14 68 -24 -38 -91 -101 -99 -93 -3 2 14 36 37 74 81 138 97 207 82 372
-20 209 -98 332 -239 377 -26 8 -91 15 -143 16 -89 2 -100 0 -160 -30 -79 -39
-140 -96 -182 -169 l-31 -56 -61 8 c-34 4 -90 10 -126 13 l-65 6 38 41 c36 40
39 41 114 47 126 9 141 22 66 57 -149 70 -418 83 -486 22 -9 -8 -20 -13 -22
-10 -3 3 -16 45 -30 94 -63 239 -88 248 -181 69 l-49 -95 -75 0 c-74 0 -210
-35 -210 -54 0 -5 23 -48 51 -97 29 -49 50 -91 48 -93 -2 -2 -13 -6 -25 -10
-18 -5 -28 6 -73 81 -28 49 -60 99 -71 113 l-20 25 0 -32 c0 -18 -4 -33 -8
-33 -5 0 -8 -48 -8 -107 1 -123 -8 -148 -78 -217 -23 -22 -50 -61 -60 -86 -10
-25 -29 -69 -43 -99 -15 -34 -31 -100 -42 -175 -10 -67 -26 -137 -36 -156 -28
-54 -151 -215 -179 -234 -23 -14 -116 -23 -116 -11 0 8 138 262 168 310 14 22
57 82 96 134 39 52 76 101 81 110 6 9 19 29 29 44 10 15 17 30 14 32 -3 3 -18
-15 -33 -40 -19 -30 -32 -41 -40 -35 -7 6 -22 -1 -42 -21 -18 -16 -36 -29 -42
-29 -6 0 -35 -30 -65 -67 -140 -172 -208 -253 -264 -313 l-61 -65 14 40 c35
103 81 198 137 283 33 51 63 90 66 87 3 -3 10 5 17 18 6 12 16 21 21 20 5 -1
10 13 10 30 1 16 8 35 16 41 13 10 19 22 29 51 1 6 14 19 28 29 34 25 51 42
32 31 -9 -5 -12 -4 -7 3 4 6 13 9 20 6 27 -10 159 175 214 299 16 36 18 48 8
56 -10 8 -33 -18 -95 -109 -46 -65 -99 -133 -119 -150 -36 -31 -37 -31 -53
-11 -16 20 -16 20 -35 -2 -31 -36 -114 -166 -114 -177 0 -6 -4 -9 -9 -5 -5 3
-12 -4 -16 -15 -8 -25 -126 -182 -173 -230 -37 -37 47 77 98 135 34 38 109
165 190 320 35 66 67 126 73 133 27 34 250 235 244 220 -3 -10 -2 -18 2 -18
15 0 21 -30 11 -50 -7 -13 -6 -21 4 -29 11 -9 12 -6 8 14 -3 20 0 25 16 25 22
0 28 6 66 75 l28 50 -30 -35 c-38 -43 -40 -35 -7 29 27 55 23 69 -12 41 -13
-10 -50 -26 -81 -35 -67 -19 -169 -74 -218 -117 -38 -33 -47 -33 -131 3 l-48
21 30 24 c16 13 77 45 134 70 87 39 119 48 185 53 79 6 109 22 66 36 -18 6
-21 13 -18 45 2 21 0 36 -4 34 -5 -3 -8 -11 -8 -18 0 -9 -23 -15 -73 -19 -46
-3 -97 -15 -138 -32 -87 -37 -218 -125 -301 -203 l-69 -65 -32 35 c-62 67
-349 238 -469 279 -88 29 -230 34 -338 10z m2093 -115 c0 -14 3 -26 8 -26 5 0
9 -10 9 -22 0 -19 -2 -20 -10 -8 -5 8 -10 10 -10 4 0 -6 7 -17 15 -24 8 -7 14
-22 14 -34 -1 -17 -2 -17 -6 -3 -2 9 -11 17 -19 17 -17 0 -17 -5 -4 -31 7 -12
7 -19 1 -19 -14 0 -26 22 -23 43 3 13 -4 17 -24 17 -26 0 -27 1 -9 14 11 8 23
12 27 10 14 -9 16 12 2 36 l-15 25 7 -25 c3 -14 3 -22 -1 -18 -5 4 -14 0 -21
-10 -11 -13 -11 -10 0 18 8 19 20 35 27 35 7 0 14 6 17 14 3 8 0 11 -7 7 -7
-5 -9 -1 -5 9 9 23 27 3 27 -29z m-1790 4 c42 -10 87 -25 99 -32 22 -11 21
-13 -22 -19 -55 -8 -117 -33 -186 -73 -28 -17 -66 -39 -83 -48 -17 -9 -39 -31
-50 -49 -22 -36 -15 -34 -204 -39 -66 -1 -113 2 -121 9 -7 6 -17 7 -21 3 -5
-4 -5 -1 -1 6 4 7 12 10 17 7 5 -4 9 3 9 14 0 10 -6 22 -12 24 -8 4 -7 6 4 6
9 1 19 -5 21 -11 3 -7 6 -3 6 10 1 12 -5 22 -11 23 -8 0 -7 3 2 6 8 4 21 12
28 20 11 11 11 13 -4 13 -26 0 51 57 126 93 119 58 270 72 403 37z m-804 -15
c7 -7 -22 -10 -80 -11 -82 -1 -108 6 -76 20 19 9 146 1 156 -9z m-107 -136
c-16 -29 -32 -41 -32 -24 1 19 35 74 42 67 5 -5 1 -24 -10 -43z m103 -51 c-7
-107 -37 -387 -57 -543 l-11 -90 -97 -78 c-114 -92 -212 -184 -302 -286 l-65
-74 -69 31 c-73 32 -168 50 -179 32 -7 -11 13 -52 23 -46 4 2 13 -3 20 -11 12
-12 10 -13 -10 -11 -13 2 -29 7 -35 11 -9 6 -11 3 -7 -7 5 -12 -12 -15 -105
-18 -87 -2 -111 0 -111 10 0 10 -4 9 -16 -2 -20 -20 -30 -21 -14 -1 11 13 8
15 -14 15 -15 0 -29 7 -33 16 -5 13 -8 13 -15 2 -6 -9 -8 -3 -4 17 3 17 8 47
11 67 6 53 60 176 94 217 l29 35 17 -34 c10 -19 56 -74 101 -122 58 -59 82
-91 78 -102 -9 -22 28 -21 48 2 9 9 26 48 37 86 12 40 38 92 59 120 21 28 63
91 93 139 30 49 84 119 121 157 36 37 68 78 70 91 2 17 10 25 28 26 71 8 72 8
95 64 12 30 43 89 69 131 65 107 115 216 111 239 -3 15 2 19 22 19 l25 0 -7
-102z m989 82 c140 -36 253 -111 306 -204 37 -64 37 -83 -1 -147 -17 -29 -31
-61 -32 -71 -1 -10 -8 -18 -17 -18 -9 0 -26 -7 -38 -16 -13 -9 -29 -13 -37
-10 -8 3 -15 1 -15 -5 0 -6 -13 -1 -28 10 -49 34 -113 54 -178 55 -35 1 -64 4
-64 9 0 4 4 7 9 7 22 0 104 240 87 257 -14 14 -64 -61 -102 -152 -41 -97 -81
-148 -176 -221 -39 -31 -58 -40 -61 -30 -12 31 -29 211 -25 258 4 36 1 59 -9
75 -12 17 -12 26 -2 45 38 75 198 176 280 178 14 0 61 -9 103 -20z m-1240 -12
c-6 -10 -5 -10 8 -1 19 16 28 7 28 -30 0 -26 2 -28 18 -16 14 11 15 11 5 -1
-21 -23 -15 -56 14 -75 22 -15 24 -20 12 -29 -8 -6 -30 -36 -49 -66 -73 -117
-147 -209 -250 -310 -67 -66 -119 -127 -140 -165 -18 -33 -52 -86 -75 -117
-29 -38 -45 -72 -49 -102 -8 -49 -20 -59 -31 -26 -4 13 -15 20 -30 20 -13 0
-28 6 -32 13 -4 6 -17 17 -28 23 -29 16 -56 115 -43 161 5 19 7 46 3 60 -8 32
9 51 40 45 29 -5 32 4 9 29 -16 17 -15 20 12 46 22 21 29 37 29 66 -1 39 16
64 35 52 6 -4 9 -1 8 7 -2 7 3 12 10 10 6 -1 11 1 10 6 -4 12 62 67 237 200
88 67 177 142 198 167 35 41 69 63 51 33z m91 -17 c-3 -6 -11 -11 -16 -11 -5
0 -4 6 3 14 14 16 24 13 13 -3z m3897 -47 c132 -45 213 -208 189 -379 -25
-172 -99 -367 -168 -443 -35 -39 -47 -44 -164 -76 -69 -19 -152 -37 -183 -41
-58 -8 -58 -7 -51 16 23 72 126 247 241 404 62 86 86 148 81 208 -6 64 -16 99
-28 91 -5 -3 -6 1 -3 9 8 21 -49 64 -95 72 -22 3 -58 1 -82 -6 -24 -6 -57 -13
-72 -14 -16 -2 -33 -7 -39 -13 -6 -6 -17 -8 -24 -5 -10 4 -3 19 27 54 46 56
111 103 167 124 50 19 149 18 204 -1z m-762 -44 c-60 -32 -75 -36 -64 -18 4 6
-4 3 -18 -8 -29 -21 -29 -34 -1 -14 10 7 5 1 -10 -14 -15 -14 -35 -26 -43 -26
-8 0 -14 -5 -14 -10 0 -7 -8 -6 -22 1 -20 11 -21 10 -11 -3 10 -12 10 -15 -2
-15 -8 0 -12 4 -9 8 2 4 0 11 -6 14 -8 5 -8 11 0 20 7 8 9 19 6 24 -16 25 110
70 199 70 l50 0 -55 -29z m-2735 -30 c7 -12 -2 -12 -30 0 -19 8 -19 9 2 9 12
1 25 -3 28 -9z m301 -77 c24 -49 26 -175 4 -197 -28 -27 -58 -29 -77 -5 -49
60 -53 61 -132 56 -56 -4 -79 -11 -96 -27 l-22 -21 -12 45 c-6 25 -11 63 -11
86 0 39 2 42 47 61 56 24 126 36 214 38 l67 1 18 -37z m1134 -178 c0 -5 -5 -3
-10 5 -5 8 -10 20 -10 25 0 6 5 3 10 -5 5 -8 10 -19 10 -25z m1608 -74 c10
-14 29 -31 40 -37 43 -21 62 -46 58 -73 -2 -14 -5 -27 -6 -28 -2 -2 -3 -8 -4
-13 0 -6 -8 -15 -16 -20 -8 -5 -11 -10 -7 -10 11 0 -54 -55 -65 -55 -5 0 -13
-7 -18 -15 -8 -12 -10 -12 -10 -1 0 11 -4 11 -18 -2 -10 -10 -23 -17 -28 -17
-5 0 -2 5 6 10 8 5 10 10 4 10 -6 0 -14 -3 -18 -7 -13 -14 -38 -12 -32 3 3 8
2 14 -3 14 -5 0 -28 61 -52 135 -23 74 -46 135 -50 135 -4 0 -2 11 4 25 13 27
67 41 132 33 20 -2 35 0 35 7 1 5 7 -8 15 -29 8 -22 23 -51 33 -65z m-918 79
c0 -5 -7 -10 -15 -10 -8 0 -15 5 -15 10 0 6 7 10 15 10 8 0 15 -4 15 -10z
m-721 -53 c1 -4 -5 -2 -13 5 -7 7 -11 19 -8 27 4 11 7 10 13 -5 4 -10 8 -23 8
-27z m1851 14 c0 -11 -29 -35 -35 -29 -10 9 7 38 21 38 8 0 14 -4 14 -9z
m-2441 -46 c51 -25 105 -80 95 -96 -3 -5 -40 -9 -82 -9 -42 0 -120 -9 -172
-20 -52 -11 -118 -20 -147 -20 -46 0 -52 2 -45 18 18 46 119 136 168 152 44
14 130 2 183 -25z m611 1 c0 -2 -7 -7 -16 -10 -8 -3 -12 -2 -9 4 6 10 25 14
25 6z m1099 -11 c39 -20 67 -83 81 -180 6 -44 17 -84 24 -90 7 -5 13 -14 14
-20 0 -5 6 -11 13 -14 6 -2 9 1 6 6 -3 5 8 18 26 28 l32 18 -25 -28 c-21 -23
-22 -27 -6 -21 16 6 17 4 5 -10 -7 -9 -15 -12 -17 -6 -4 12 -42 4 -63 -15 -9
-8 -24 -34 -34 -59 -10 -25 -36 -80 -60 -122 -34 -63 -47 -77 -66 -77 -13 0
-30 -4 -36 -8 -31 -20 -121 76 -153 160 -28 74 -43 193 -37 276 7 82 37 129
101 158 51 23 155 25 195 4z m-1976 -194 c114 -40 214 -115 251 -188 19 -38
21 -92 4 -98 -20 -7 -174 -34 -263 -46 -383 -49 -564 -83 -661 -124 -46 -19
-44 -20 -44 15 0 25 -4 30 -24 30 -31 0 -40 13 -61 93 -21 80 -14 104 40 139
37 25 44 38 20 38 -47 0 24 53 127 94 62 24 119 38 268 65 89 16 275 6 343
-18z m3042 -356 c-1 -14 4 -29 11 -33 11 -6 8 -15 -14 -40 -23 -28 -35 -33
-86 -38 l-58 -5 62 70 c67 75 90 88 85 46z m-2006 -44 c17 -53 14 -71 -11 -71
-22 0 -23 3 -20 61 4 64 12 67 31 10z m-2886 -88 c-7 -2 -19 -2 -25 0 -7 3 -2
5 12 5 14 0 19 -2 13 -5z m2942 -185 c4 -68 5 -148 3 -178 l-3 -55 -420 -1
c-231 -1 -397 2 -370 5 37 5 45 9 32 15 -9 5 -26 6 -37 3 -11 -3 -20 -1 -20 4
0 5 6 9 13 10 34 2 92 11 96 15 2 2 -25 5 -60 5 -35 1 -77 2 -94 3 l-30 1 -7
140 c-3 77 -5 142 -3 145 2 3 203 6 448 8 l445 2 7 -122z m803 32 c2 -47 0
-127 -3 -177 l-7 -93 -354 0 c-330 0 -354 1 -354 18 0 9 -5 86 -10 171 -5 85
-7 158 -4 163 3 4 168 7 367 6 l362 -3 3 -85z m1175 -84 c-2 -93 -4 -171 -6
-173 -2 -2 -254 -6 -560 -10 l-557 -6 0 181 0 182 563 -2 562 -3 -2 -169z
m-2943 -13 c0 -112 -4 -173 -9 -168 -6 6 -52 7 -113 4 -57 -4 -226 -7 -375 -8
l-273 -1 0 29 c0 16 6 32 13 34 7 3 5 6 -5 6 -16 1 -18 15 -18 141 l0 140 390
0 390 0 0 -177z m-1432 6 l2 -156 -26 3 c-15 1 -150 4 -300 6 l-273 3 -6 60
c-4 33 -5 98 -3 145 l3 85 190 5 c105 3 240 5 300 5 l110 0 3 -156z m582 55
c0 -84 -3 -104 -14 -104 -9 0 -16 -12 -18 -27 l-3 -28 -180 -6 c-99 -4 -208
-10 -242 -14 l-63 -8 0 147 0 147 260 -1 260 -1 0 -105z m958 -227 c12 -3 10
-5 -5 -6 -19 -1 -23 4 -22 27 1 22 2 23 6 5 2 -12 12 -24 21 -26z m2605 -114
l188 -6 -3 -31 -3 -31 -320 -7 c-176 -3 -815 -11 -1420 -17 -751 -8 -1157 -16
-1280 -26 -99 -7 -241 -17 -315 -21 l-135 -7 65 -13 c52 -11 207 -12 805 -6
839 8 1104 9 1290 3 169 -5 205 1 50 9 -111 6 -105 6 80 8 110 1 331 6 490 12
160 5 380 10 490 12 196 3 200 3 203 -18 7 -51 144 -49 -2370 -49 -2048 0
-2340 2 -2348 15 -5 8 -6 17 -3 20 3 3 8 -1 10 -7 4 -10 40 -13 141 -11 124 1
130 2 57 8 -103 8 -64 11 170 11 105 1 217 4 250 9 l60 7 -55 2 c-30 1 -93 8
-140 15 -47 8 -157 20 -245 27 -88 7 -162 16 -165 20 -10 12 -50 21 -50 10 0
-6 -5 -11 -11 -11 -5 0 -7 5 -4 10 3 6 0 10 -7 11 -7 0 -35 4 -61 8 -36 6 -52
5 -62 -5 -11 -11 -14 -11 -19 3 -4 9 -2 21 4 27 8 8 495 13 1653 16 903 4
1908 7 2232 8 325 1 675 -1 778 -5z m-4440 -160 c-13 -2 -35 -2 -50 0 -16 2
-5 4 22 4 28 0 40 -2 28 -4z m214 -118 c17 -6 22 -59 34 -400 6 -170 14 -398
18 -505 4 -107 4 -199 -1 -205 -4 -5 -8 -62 -8 -126 0 -65 -4 -129 -10 -144
-17 -45 -78 -65 -202 -65 l-107 0 -5 33 c-3 17 -10 120 -16 227 -6 107 -24
368 -40 580 -16 212 -32 435 -36 497 l-6 112 33 3 c44 4 331 -1 346 -7z m183
-11 c0 -2 -7 -4 -15 -4 -8 0 -15 4 -15 10 0 5 7 7 15 4 8 -4 15 -8 15 -10z
m3185 -80 c11 -142 -1 -1410 -15 -1654 -7 -118 -13 -216 -14 -217 -1 -1 -28
-3 -61 -5 l-60 -3 -6 110 c-12 202 -10 1775 2 1775 5 0 9 10 7 23 -2 12 2 21
8 20 5 -1 16 8 23 19 12 19 11 20 -8 15 -12 -3 -19 -1 -15 4 3 6 34 9 69 8
l63 -2 7 -93z m382 82 c4 -3 -11 -7 -33 -8 -124 -5 -139 -7 -130 -15 3 -4 -17
-15 -46 -24 l-53 -17 113 -1 c77 -1 112 3 112 10 0 8 4 8 13 1 6 -5 36 -13 66
-17 l54 -7 -6 -151 c-4 -82 -7 -183 -7 -224 l0 -73 -206 0 -206 0 6 143 c4 78
12 198 18 267 l11 125 144 -1 c79 -1 147 -4 150 -8z m268 4 c15 -2 13 -4 -10
-10 -24 -6 -17 -8 30 -8 47 0 54 2 30 8 -28 7 -27 8 14 9 l44 1 -23 -20 c-25
-22 -24 -23 35 -20 52 2 40 -9 -22 -20 -44 -8 -40 -8 37 -8 l85 1 -3 -69 c-1
-38 -16 -148 -33 -244 -32 -184 -45 -287 -79 -591 -31 -287 -68 -398 -137
-415 -35 -9 -53 17 -53 76 0 41 21 232 36 320 6 35 5 34 -36 -22 -22 -32 -49
-58 -58 -58 -13 0 -14 -2 -4 -9 11 -6 10 -10 -4 -15 -16 -6 -17 7 -11 221 4
125 16 370 27 543 11 173 20 320 20 325 0 9 64 12 115 5z m-3448 -32 c-3 -8
-6 -5 -6 6 -1 11 2 17 5 13 3 -3 4 -12 1 -19z m3133 8 c0 -2 -7 -7 -16 -10 -8
-3 -12 -2 -9 4 6 10 25 14 25 6z m457 -2 c-3 -3 -12 -4 -19 -1 -8 3 -5 6 6 6
11 1 17 -2 13 -5z m-1349 -40 c35 -34 37 -40 44 -117 8 -107 10 -312 2 -320
-4 -4 -5 -113 -3 -244 5 -322 0 -583 -11 -602 -5 -9 -10 -11 -10 -6 0 15 -470
1 -650 -19 -25 -2 -259 -8 -521 -12 l-476 -7 -6 84 c-4 46 -7 126 -7 177 l0
92 758 0 c752 0 758 0 780 21 12 11 20 24 17 30 -4 5 -309 9 -784 9 l-778 0
-2 168 c-1 92 -6 295 -11 451 -5 157 -8 286 -7 288 2 1 252 4 557 5 901 5
1012 7 1004 21 -4 7 -4 9 0 6 4 -4 19 -3 34 1 15 5 28 9 30 9 2 1 20 -15 40
-35z m-1690 -216 l2 -228 -171 0 -171 0 5 78 c4 42 6 146 7 230 l0 152 163 -2
162 -3 3 -227z m-898 203 c5 -11 10 -62 11 -113 0 -95 12 -221 24 -270 l7 -28
-94 0 -95 0 -6 122 c-4 66 -7 163 -7 215 l0 93 75 0 c63 0 76 -3 85 -19z
m2878 -10 c11 -7 15 -167 19 -888 l6 -880 -66 -2 c-62 -2 -67 -1 -71 21 -8 35
-56 1473 -56 1666 l0 92 78 0 c42 0 83 -4 90 -9z m-2397 -18 c5 -5 13 -181 18
-393 22 -805 9 -1419 -30 -1395 -5 4 -9 -3 -9 -14 0 -10 -3 -27 -6 -36 -5 -13
-8 -14 -15 -3 -7 10 -9 10 -9 1 0 -7 -11 -13 -25 -13 -20 0 -25 6 -29 32 -8
49 -25 757 -31 1330 l-6 507 67 -4 c37 -3 71 -8 75 -12z m-218 -490 c4 -273 7
-626 7 -785 l0 -289 -72 3 -73 3 -7 330 c-4 182 -12 529 -18 773 -5 244 -8
448 -4 453 3 5 40 9 83 9 l78 0 6 -497z m-229 39 c2 -4 7 -172 10 -372 3 -260
2 -343 -5 -290 -5 41 -14 89 -19 105 -5 17 -12 67 -16 113 -3 45 -10 82 -15
82 -4 0 -11 -21 -14 -47 -14 -106 -26 -158 -40 -179 -8 -13 -16 -34 -16 -46
-2 -31 -34 280 -49 471 -10 128 -10 155 1 162 17 11 156 12 163 1z m856 -18
c3 -3 5 -186 5 -407 l0 -402 -165 0 -165 0 -3 407 -2 407 132 3 c136 3 188 1
198 -8z m2714 -12 c2 -4 -2 -95 -9 -202 -20 -280 -27 -338 -35 -315 -7 19 -7
18 -20 -4 -7 -14 -25 -35 -39 -47 -15 -12 -45 -39 -67 -58 -38 -36 -149 -96
-175 -96 -8 0 -26 -7 -41 -14 l-28 -15 0 207 c0 114 3 285 7 380 l6 172 198 0
c109 0 200 -4 203 -8z m-37 -604 c-2 -13 -4 -5 -4 17 -1 22 1 32 4 23 2 -10 2
-28 0 -40z m-3517 -406 c0 -10 -175 -22 -311 -22 -117 0 -219 11 -194 21 27
10 505 11 505 1z m-66 -48 c26 -10 19 -22 -30 -50 -42 -25 -51 -26 -117 -20
-40 4 -85 9 -102 10 -16 2 -30 4 -30 5 0 1 -31 3 -69 6 -37 2 -71 7 -75 11 -3
4 23 4 59 0 73 -7 66 8 -10 21 -40 7 -34 9 55 14 153 8 302 10 319 3z m2349
-11 c333 -6 337 -6 337 -27 0 -17 -2 -18 -10 -6 -7 10 -10 11 -10 2 0 -7 -12
-18 -27 -24 -22 -9 -24 -12 -10 -15 9 -3 17 -9 17 -15 0 -6 -12 -7 -30 -3 -27
6 -480 -21 -505 -30 -5 -2 24 -4 65 -5 522 -15 515 -14 518 -32 3 -15 -12 -17
-140 -20 -495 -12 -1959 -6 -1945 9 2 2 35 8 73 14 121 18 135 21 141 35 3 8
9 12 13 9 5 -3 11 -1 15 5 4 6 -11 10 -39 10 -25 0 -79 5 -121 11 -63 10 -75
14 -75 30 0 11 3 19 8 19 4 0 39 5 77 11 39 6 300 14 580 18 281 4 560 8 620
9 61 1 262 -1 448 -5z m1655 -45 c-1 -37 -2 -39 -5 -10 -3 19 -10 32 -18 32
-34 0 -115 -23 -109 -31 3 -5 2 -9 -3 -9 -4 0 -19 -3 -33 -5 -22 -5 -22 -4 -5
4 20 9 20 10 -1 10 -12 1 -25 -7 -28 -16 -6 -13 -9 -14 -15 -4 -6 9 -19 10
-47 5 -21 -5 -43 -7 -49 -5 -5 1 -4 -3 3 -10 18 -19 15 -31 -8 -24 -11 4 -20
2 -20 -4 0 -6 -5 -11 -11 -11 -5 0 -7 5 -4 10 3 6 -1 10 -9 10 -9 0 -15 -6
-13 -12 1 -10 -26 -15 -98 -19 l-100 -5 106 -2 c252 -5 469 -16 457 -23 -7 -5
-183 -9 -391 -9 -351 0 -378 1 -375 17 3 15 15 17 94 15 77 -3 92 0 107 15 16
18 13 19 -61 16 -98 -4 -122 2 -122 27 0 17 7 20 50 20 28 0 50 5 50 10 0 5
-3 9 -7 9 -5 -1 -27 -1 -50 0 -31 1 -43 5 -43 16 0 12 35 15 233 18 127 1 298
3 380 5 l147 2 -2 -42z m-4015 -98 c71 0 77 -2 77 -20 0 -20 -5 -20 -262 -18
l-263 3 -3 24 -4 24 189 -6 c103 -4 223 -7 266 -7z"/>
<path d="M570 4271 c0 -6 4 -13 10 -16 6 -3 7 1 4 9 -7 18 -14 21 -14 7z"/>
<path d="M4217 3983 c-4 -3 -7 -11 -7 -17 0 -6 5 -5 12 2 6 6 9 14 7 17 -3 3
-9 2 -12 -2z"/>
<path d="M4720 2750 c-8 -5 -12 -12 -9 -15 4 -3 12 1 19 10 14 17 11 19 -10 5z"/>
<path d="M2582 2413 c-21 -4 -23 -9 -20 -56 l3 -52 44 -3 c51 -4 61 6 61 61 0
31 -4 39 -26 47 -14 6 -28 9 -32 9 -4 -1 -17 -4 -30 -6z"/>
<path d="M3138 2412 l-38 -3 0 -70 0 -69 65 0 65 0 0 64 c0 81 -7 87 -92 78z"/>
<path d="M2957 2404 c-4 -4 -7 -31 -7 -60 0 -60 17 -84 58 -84 47 0 53 11 50
81 l-3 64 -45 3 c-25 2 -49 0 -53 -4z"/>
<path d="M2720 2341 c0 -65 6 -71 65 -71 59 0 65 6 65 71 l0 59 -65 0 -65 0 0
-59z"/>
<path d="M3270 2364 c0 -30 4 -37 30 -45 16 -6 32 -19 35 -30 5 -15 16 -19 48
-19 48 0 63 16 73 78 5 35 4 40 -17 45 -13 4 -57 7 -96 7 l-73 0 0 -36z"/>
<path d="M2347 2283 c-4 -3 -7 -15 -7 -25 0 -16 -10 -18 -104 -18 -73 0 -107
-4 -113 -12 -4 -7 -7 -69 -6 -138 l2 -125 37 -31 c20 -17 41 -31 47 -32 7 -1
30 -3 51 -5 45 -3 57 -20 27 -37 -25 -13 -27 -35 -5 -44 33 -13 161 -6 174 8
20 26 8 61 -22 64 -28 3 -28 4 -28 77 0 80 -3 76 66 90 47 9 64 48 64 149 l0
86 -88 0 c-49 0 -92 -3 -95 -7z"/>
<path d="M2692 2018 l3 -113 60 4 c70 4 92 16 125 70 14 22 28 41 33 41 4 0 7
-23 7 -50 0 -45 3 -52 25 -60 14 -5 36 -8 48 -6 12 3 30 5 40 5 15 1 17 12 17
89 0 48 -4 93 -9 101 -6 10 -21 11 -57 7 -33 -5 -66 -2 -99 8 -27 9 -83 16
-123 16 l-73 0 3 -112z"/>
<path d="M3155 2120 c-57 -6 -51 10 -47 -140 l2 -71 58 3 57 3 -3 100 c-2 55
-6 102 -10 105 -4 3 -29 3 -57 0z"/>
<path d="M3300 2021 l0 -111 60 0 60 0 0 105 0 105 -44 0 c-24 0 -51 3 -60 6
-14 5 -16 -8 -16 -105z"/>
<path d="M3406 4717 c3 -10 9 -15 12 -12 3 3 0 11 -7 18 -10 9 -11 8 -5 -6z"/>
</g>
</svg>
