<?xml version="1.0" standalone="no"?>
<!DOCTYPE svg PUBLIC "-//W3C//DTD SVG 20010904//EN"
 "http://www.w3.org/TR/2001/REC-SVG-20010904/DTD/svg10.dtd">
<svg version="1.0" xmlns="http://www.w3.org/2000/svg"
 width="700.000000pt" height="700.000000pt" viewBox="0 0 700.000000 700.000000"
 preserveAspectRatio="xMidYMid meet">
<metadata>
Created by potrace 1.14, written by Peter Selinger 2001-2017
</metadata>
<g transform="translate(0.000000,700.000000) scale(0.100000,-0.100000)"
fill="#000000" stroke="none">
<path d="M378 6653 c-44 -28 -59 -82 -38 -137 13 -34 52 -58 102 -62 24 -1 76
-5 116 -8 40 -3 103 -13 140 -22 37 -8 74 -17 82 -19 88 -21 317 -129 350
-165 3 -3 21 -17 40 -30 222 -154 410 -446 465 -720 1 -3 4 -18 8 -35 4 -16 9
-49 12 -72 5 -40 4 -43 -19 -43 -13 0 -66 -9 -118 -19 -360 -75 -671 -314
-834 -645 -45 -91 -87 -210 -99 -281 -3 -22 -10 -62 -15 -90 -12 -75 -9 -260
6 -348 29 -163 132 -320 267 -405 104 -65 269 -123 397 -138 30 -3 57 -8 60
-9 3 -2 30 -6 60 -10 227 -25 713 -19 880 10 14 3 41 7 60 10 149 25 288 74
387 138 24 15 44 27 46 27 3 0 7 -30 11 -66 4 -36 16 -95 28 -131 17 -51 19
-66 9 -73 -7 -4 -45 -31 -84 -59 -40 -29 -213 -153 -386 -276 l-314 -224 -62
45 c-126 89 -314 167 -470 193 -33 6 -73 13 -90 16 -37 6 -282 8 -310 2 -11
-3 -42 -8 -70 -11 -92 -12 -223 -52 -323 -97 -35 -16 -66 -29 -68 -29 -3 0
-10 -5 -17 -10 -7 -6 -40 -28 -75 -50 -35 -22 -90 -66 -122 -98 -54 -52 -60
-62 -60 -99 0 -73 73 -129 139 -108 12 3 49 30 82 59 283 247 753 301 1129
129 43 -20 158 -94 185 -120 89 -84 128 -90 217 -29 63 43 662 470 778 554 56
41 68 43 86 14 9 -14 -11 -52 -112 -212 -68 -107 -137 -217 -153 -245 -53 -88
-645 -1036 -706 -1130 -18 -27 -74 -117 -125 -200 -51 -82 -103 -166 -115
-185 -98 -152 -276 -441 -284 -462 -33 -86 58 -170 144 -133 37 15 25 -3 360
535 152 245 287 461 300 480 13 19 215 343 450 720 235 377 430 688 434 692 3
4 16 5 29 2 l22 -6 0 -1177 c0 -1147 1 -1177 20 -1208 41 -68 150 -61 185 12
13 29 15 167 15 1184 0 633 3 1152 8 1153 4 0 18 2 32 4 153 14 284 74 403
184 44 41 78 70 74 64 -11 -18 -39 -160 -53 -269 -3 -22 -7 -51 -10 -65 -19
-114 -27 -973 -11 -1185 29 -396 89 -619 214 -802 155 -226 389 -328 753 -327
443 2 858 182 1173 508 123 128 224 275 303 441 39 83 97 244 108 297 3 13 13
61 22 108 26 123 26 447 0 585 -22 122 -80 303 -131 409 -34 72 -120 223 -134
236 -3 3 -32 40 -64 82 -68 89 -201 219 -307 299 -190 143 -454 261 -660 295
-14 3 -30 6 -37 9 -53 18 -354 26 -469 12 -229 -28 -427 -135 -545 -295 l-24
-34 1 95 c2 196 -60 343 -203 484 -111 110 -268 179 -426 187 -143 7 -309 -43
-419 -127 l-38 -29 -1 24 c-5 147 -15 224 -45 338 -118 443 -493 786 -949 867
-52 9 -95 21 -96 27 -21 223 -114 491 -231 664 -157 233 -384 426 -618 526
-36 16 -74 32 -85 37 -162 69 -503 112 -567 72z"/>
</g>
</svg>
