<?xml version="1.0" standalone="no"?>
<!DOCTYPE svg PUBLIC "-//W3C//DTD SVG 20010904//EN"
 "http://www.w3.org/TR/2001/REC-SVG-20010904/DTD/svg10.dtd">
<svg version="1.0" xmlns="http://www.w3.org/2000/svg"
 width="700.000000pt" height="700.000000pt" viewBox="0 0 700.000000 700.000000"
 preserveAspectRatio="xMidYMid meet">
<metadata>
Created by potrace 1.14, written by Peter Selinger 2001-2017
</metadata>
<g transform="translate(0.000000,700.000000) scale(0.100000,-0.100000)"
fill="#000000" stroke="none">
<path d="M2555 6981 c-313 -89 -545 -428 -601 -876 -14 -111 -8 -357 10 -445
3 -14 11 -49 17 -78 17 -86 64 -215 110 -304 171 -331 447 -491 725 -420 354
89 609 527 613 1050 4 508 -231 947 -570 1063 -86 29 -222 34 -304 10z"/>
<path d="M4585 6810 c-75 -17 -106 -32 -190 -86 -225 -143 -453 -470 -532
-761 -24 -89 -26 -116 -27 -283 -1 -257 19 -379 90 -529 95 -204 237 -318 460
-371 97 -23 265 -19 357 9 238 71 455 293 588 602 38 87 83 228 95 293 3 17 9
47 13 66 9 40 7 208 -3 260 -62 325 -274 624 -532 754 -122 61 -207 73 -319
46z"/>
<path d="M1003 5375 c-29 -7 -53 -11 -53 -9 0 8 -135 -58 -174 -85 -177 -122
-322 -383 -386 -693 -31 -153 -32 -158 -35 -283 -10 -303 110 -625 304 -815
82 -80 161 -130 266 -166 70 -24 95 -27 200 -27 363 0 631 192 745 533 12 36
23 72 25 80 2 8 8 35 13 60 41 182 44 499 6 669 -63 280 -294 574 -538 685
-122 56 -265 75 -373 51z"/>
<path d="M5727 4869 c-288 -29 -457 -164 -578 -464 -23 -57 -56 -206 -65 -295
-3 -30 -7 -66 -10 -80 -5 -32 -5 -367 1 -439 31 -390 178 -610 470 -706 65
-21 98 -28 205 -40 52 -6 198 -6 255 0 196 21 373 121 473 267 73 106 129 255
148 393 2 17 7 41 10 55 13 53 13 474 0 535 -13 63 -14 65 -22 105 -36 161
-141 348 -262 465 -123 121 -303 198 -471 204 -36 1 -67 3 -70 5 -3 1 -41 -1
-84 -5z"/>
<path d="M3410 4153 c-23 -3 -144 -22 -180 -28 -33 -6 -140 -46 -203 -75 -195
-90 -417 -289 -513 -459 -102 -181 -264 -388 -460 -586 -105 -107 -148 -147
-304 -285 -40 -36 -94 -85 -119 -109 -25 -24 -62 -55 -81 -70 -282 -210 -508
-452 -622 -668 -68 -129 -122 -284 -134 -383 -3 -25 -7 -56 -10 -70 -2 -14 -4
-65 -5 -115 -2 -363 154 -747 395 -973 171 -160 351 -235 611 -257 74 -6 443
-6 505 0 25 2 86 7 135 10 50 3 97 8 105 10 8 2 38 6 65 10 80 9 219 33 375
65 206 41 349 56 520 54 99 -1 290 -13 299 -18 3 -2 29 -6 56 -10 105 -12 208
-36 414 -96 238 -68 453 -96 736 -94 259 2 431 37 609 125 276 137 434 357
530 734 23 94 30 130 41 230 7 58 7 240 1 273 -3 15 -8 44 -11 64 -24 170
-102 358 -208 501 -68 92 -115 141 -207 216 -36 29 -83 70 -105 90 -22 20 -56
49 -75 65 -120 99 -542 508 -671 651 -192 213 -327 383 -439 550 -235 350
-470 541 -755 616 -91 24 -230 39 -295 32z"/>
</g>
</svg>
